<svg id="hest" xmlns="http://www.w3.org/2000/svg" viewBox="0 0 1875.66 409.45" xmlns:xlink="http://www.w3.org/1999/xlink" xml:space="preserve"><defs><style>.cls-1{fill:#fff;}.cls-2{fill:#ef4432;}</style></defs><title>Yggdrasil</title>


<rect class="cls-1" width="1875.66" height="409.45"/><path class="cls-2" d="M747.77,800.88l117.67,48.74,48.74,117.67L865.44,1085l-117.67,48.74L630.11,1085,581.37,967.29l48.74-117.67,117.67-48.74m0-25-8.85,3.66L621.26,828.26l-8.85,3.66-3.66,8.85L560,958.44l-3.66,8.85,3.66,8.85,48.74,117.67,3.66,8.85,8.85,3.66L738.93,1155l8.85,3.66,8.85-3.66,117.67-48.74,8.85-3.66,3.66-8.85,48.74-117.67,3.66-8.85-3.66-8.85L886.79,840.77l-3.66-8.85-8.85-3.66L756.62,779.52l-8.85-3.66h0Z" transform="translate(-556.35 -749.26)"/><polygon class="cls-2" points="203.39 188.31 300.26 142.23 290.92 119.87 203.39 160.82 203.39 75.05 179.85 75.07 179.85 160.82 92.32 119.87 82.98 142.23 179.85 188.31 179.85 248.2 82.98 294.29 92.32 316.65 179.85 275.69 179.85 352.6 203.39 352.57 203.39 275.69 290.92 316.65 300.26 294.29 203.39 248.2 203.39 188.31"/><path class="cls-2" d="M1122,981.68l-52.2-90.83h27.76l36.56,63.9,36.66-63.9h27.76l-52.4,90.83v69.08H1122V981.68Z" transform="translate(-556.35 -749.26)"/><path class="cls-2" d="M1312.3,967.49h66.07v5.28q0,18-4.25,31.9a67.81,67.81,0,0,1-14,24q-22.27,25.06-56.65,25.06-33.55,0-57.48-24.23t-23.92-58.41q0-34.8,24.34-59t59.24-24.34a81.4,81.4,0,0,1,35,7.63q15.54,7.63,30.55,24.79L1354,936.63q-19.68-26.2-48-26.2-25.37,0-42.56,17.5-17.19,17.19-17.19,43.08,0,26.72,19.16,44,17.92,16.05,38.84,16.05,17.81,0,32-12t15.85-28.93H1312.3V967.49Z" transform="translate(-556.35 -749.26)"/><path class="cls-2" d="M1512.16,967.49h66.07v5.28q0,18-4.25,31.9a67.81,67.81,0,0,1-14,24q-22.27,25.06-56.65,25.06-33.55,0-57.48-24.23T1422,971.12q0-34.8,24.34-59t59.24-24.34a81.4,81.4,0,0,1,35,7.63q15.54,7.63,30.55,24.79l-17.19,16.47q-19.68-26.2-48-26.2-25.37,0-42.56,17.5-17.19,17.19-17.19,43.08,0,26.72,19.16,44,17.92,16.05,38.84,16.05,17.81,0,32-12T1552,990.17h-39.87V967.49Z" transform="translate(-556.35 -749.26)"/><path class="cls-2" d="M1629.79,1050.76V890.86h33.55q24.13,0,38.11,4.76a71.34,71.34,0,0,1,27.24,15.85q24.75,22.58,24.75,59.34t-25.79,59.65q-12.95,11.39-27.13,15.85-13.26,4.45-37.59,4.45h-33.14Zm24.13-22.68h10.87q16.26,0,27-3.42a54.85,54.85,0,0,0,19.47-11.5q17.81-16.26,17.81-42.36,0-26.3-17.61-42.67-15.85-14.6-46.71-14.6h-10.87v114.54Z" transform="translate(-556.35 -749.26)"/><path class="cls-2" d="M1859.16,982.61l49.5,68.15h-29.52l-45.67-65.45h-4.35v65.45H1805V890.86h28.27q31.69,0,45.78,11.91,15.53,13.26,15.53,35,0,17-9.73,29.21A43.4,43.4,0,0,1,1859.16,982.61Zm-30-18.33h7.66q34.28,0,34.28-26.2,0-24.55-33.35-24.55h-8.6v50.75Z" transform="translate(-556.35 -749.26)"/><path class="cls-2" d="M2047.84,1011.92h-68.46l-17.81,38.84h-26l79.12-169.95L2091,1050.76h-26.41ZM2038,989.24l-23.72-54.37-24.86,54.37H2038Z" transform="translate(-556.35 -749.26)"/><path class="cls-2" d="M2222.64,914.57l-19.57,11.6q-5.49-9.53-10.46-12.43-5.18-3.31-13.36-3.31-10,0-16.67,5.7a17.67,17.67,0,0,0-6.63,14.09q0,11.71,17.4,18.86l15.95,6.53q19.47,7.88,28.48,19.23t9,27.83q0,22.08-14.71,36.48t-36.77,14.51q-20.82,0-34.38-12.38-13.36-12.37-16.67-34.74l24.44-5.39q1.66,14.09,5.8,19.47,7.46,10.36,21.75,10.36a25.25,25.25,0,0,0,18.74-7.55q7.46-7.55,7.46-19.15a26.87,26.87,0,0,0-1.29-8.54,21.7,21.7,0,0,0-4-7.14,32.24,32.24,0,0,0-7.09-6.11,68.46,68.46,0,0,0-10.36-5.43l-15.43-6.42q-32.83-13.87-32.83-40.57,0-18,13.77-30.11t34.28-12.21Q2207.1,887.75,2222.64,914.57Z" transform="translate(-556.35 -749.26)"/><path class="cls-2" d="M2301.22,890.86v159.9h-24.13V890.86h24.13Z" transform="translate(-556.35 -749.26)"/><path class="cls-2" d="M2385,890.86v137.22h47v22.68h-71.15V890.86H2385Z" transform="translate(-556.35 -749.26)"/><rect class="cls-1" x="937.83" width="5.92" height="26.6"/>


</svg>